<?xml version="1.0" encoding="utf-8"?>
<!-- Generator: Adobe Illustrator 14.0.0, SVG Export Plug-In . SVG Version: 6.00 Build 43363)  -->
<!DOCTYPE svg PUBLIC "-//W3C//DTD SVG 1.1//EN" "http://www.w3.org/Graphics/SVG/1.1/DTD/svg11.dtd">
<svg version="1.1" xmlns="http://www.w3.org/2000/svg" xmlns:xlink="http://www.w3.org/1999/xlink" x="0px" y="0px" width="80px"
	 height="70px" viewBox="0 0 80 70" style="enable-background:new 0 0 80 70;" xml:space="preserve">
<g id="Layer_2_1_">
	<g id="Layer_2">
		<rect style="fill:#FFFFFF;" width="80" height="70"/>
	</g>
</g>
<g id="body_1_">
	<g id="body_2_">
		
			<radialGradient id="SVGID_1_" cx="118.3418" cy="22.6855" r="4.7409" gradientTransform="matrix(4.6414 4.250000e-02 4.250000e-02 -4.6415 -489.4438 143.6316)" gradientUnits="userSpaceOnUse">
			<stop  offset="0" style="stop-color:#FFFFFF"/>
			<stop  offset="0.1557" style="stop-color:#F7DDDC"/>
			<stop  offset="0.5685" style="stop-color:#E18786"/>
			<stop  offset="0.8594" style="stop-color:#D4514F"/>
			<stop  offset="1" style="stop-color:#CF3C3A"/>
		</radialGradient>
		<path style="fill:url(#SVGID_1_);" d="M34.2,49.4c7,6.3,16.3,10.1,26.4,10.2c10.2,0.1,19.5-3.6,26.6-9.8
			c-2.8-13-13.5-22.7-26.3-22.8C48.1,27,37.2,36.5,34.2,49.4z"/>
		
			<radialGradient id="SVGID_3_" cx="118.3359" cy="29.877" r="8.6548" gradientTransform="matrix(4.6414 4.250000e-02 4.250000e-02 -4.6415 -489.4438 143.6316)" gradientUnits="userSpaceOnUse">
			<stop  offset="0" style="stop-color:#FFFFFF"/>
			<stop  offset="0.1557" style="stop-color:#F7DDDC"/>
			<stop  offset="0.5685" style="stop-color:#E18786"/>
			<stop  offset="0.8594" style="stop-color:#D4514F"/>
			<stop  offset="1" style="stop-color:#CF3C3A"/>
		</radialGradient>
		<path style="fill:url(#SVGID_3_);" d="M101.2,10.4c-0.2,22.2-18.4,40-40.5,39.8C38.5,50,20.7,31.8,20.9,9.6
			c0.2-22.2,18.4-40,40.5-39.8C83.6-30,101.4-11.8,101.2,10.4z"/>
		
			<radialGradient id="SVGID_4_" cx="417.0684" cy="-214.7139" r="42.6" gradientTransform="matrix(1 0 0 -1 -356 -200)" gradientUnits="userSpaceOnUse">
			<stop  offset="0" style="stop-color:#FFFFFF"/>
			<stop  offset="0.1557" style="stop-color:#F7DDDC"/>
			<stop  offset="0.5685" style="stop-color:#E18786"/>
			<stop  offset="0.8594" style="stop-color:#D4514F"/>
			<stop  offset="1" style="stop-color:#CF3C3A"/>
		</radialGradient>
		<path style="fill:url(#SVGID_4_);" d="M101.2,10.4c0.2-22.2-17.6-40.4-39.8-40.5C39.2-30.4,21.1-12.6,20.9,9.6
			c-0.1,13.3,6.2,25.1,16,32.5c-1.2,2.3-2.1,4.7-2.7,7.3c7,6.3,16.3,10.1,26.4,10.2c10.2,0.1,19.5-3.6,26.6-9.8
			c-0.6-2.6-1.4-5.1-2.6-7.3C94.6,35.3,101.1,23.6,101.2,10.4z"/>
		<g>
			<path style="fill:#E86CA1;" d="M42.4,46.5c-1.3,4.3-0.5,7.8,0.2,10.9c0.5,2,0.9,3.7,0.7,5.5v0.2v0.2c0.1,1.8-0.4,3.6-1.3,5.6l0,0
				c-0.8,1.8-0.1,3.8,1.7,4.6c1.8,0.8,3.8,0.1,4.6-1.7l0,0c0.9-1.9,2-4.9,1.9-8.6v0.4c0.2-2.9-0.4-5.4-0.9-7.6
				c-0.6-2.7-1.1-4.9-0.4-7.3l0,0c0.6-1.8-0.5-3.8-2.3-4.3C44.9,43.7,43,44.7,42.4,46.5L42.4,46.5z"/>
		</g>
		<g>
			<path style="fill:#E86CA1;" d="M51.9,52.2c-1,4.4,0.1,7.8,1,10.9c0.6,2,1.1,3.7,1.1,5.5v0.2v0.2c0.3,3.2-0.7,5.3-1.5,6.9
				c-0.2,0.5-0.4,0.8-0.6,1.2l0,0c-0.7,1.8,0.2,3.8,2,4.4c1.8,0.7,3.8-0.3,4.4-2l0,0c0.1-0.1,0.2-0.4,0.3-0.7
				c0.9-1.9,2.6-5.5,2.1-10.6v0.4c0-2.9-0.8-5.4-1.4-7.6c-0.8-2.6-1.4-4.8-0.9-7.3l0,0c0.4-1.9-0.7-3.7-2.6-4.2
				C54.2,49.2,52.3,50.4,51.9,52.2L51.9,52.2z"/>
		</g>
		<g>
			<path style="fill:#E86CA1;" d="M70.9,48c-0.6,5,1.1,8.7,2.7,12c0.9,2.1,1.9,4,2.1,6.1v0.2l0.1,0.2c0.8,3.7-0.1,6.4-0.8,8.2
				c-0.2,0.5-0.4,1-0.5,1.4l0,0c-0.5,1.9,0.7,3.7,2.5,4.2c1.9,0.5,3.7-0.7,4.2-2.5l0,0c0.1-0.2,0.2-0.5,0.3-0.9
				c0.8-2.2,2.2-6.4,1-12l0.1,0.4c-0.4-3.2-1.6-5.8-2.7-8.2c-1.3-2.8-2.4-5.2-2.1-8.3l0,0c0.2-1.9-1.1-3.6-3-3.8
				C72.8,44.8,71.1,46.2,70.9,48L70.9,48z"/>
		</g>
		<g>
			<path style="fill:#E86CA1;" d="M60.7,44.9c-2.1,5.9,0.3,12,2.4,17.2c1.4,3.7,2.8,7.1,2.8,10.2c0,5.2-1.2,8.2-2,9.9
				c-0.3,0.7-0.5,1.2-0.7,1.8l0,0c-0.5,1.9,0.7,3.7,2.5,4.2c1.9,0.5,3.7-0.7,4.2-2.5l0,0v0.1c0.1-0.1,0.2-0.5,0.3-0.8
				c0.9-2.1,2.5-6,2.5-12.6c0-4.5-1.7-8.7-3.3-12.8c-1.8-4.6-3.5-8.9-2.3-12.4l0,0c0.6-1.8-0.3-3.8-2.1-4.4
				C63.3,42.1,61.3,43.1,60.7,44.9L60.7,44.9z"/>
		</g>
		<path style="fill:#FFFFFF;" d="M90.3,37.6c0.2-0.2,0.3-0.3,0.5-0.5c0.3-0.3,0.6-0.7,0.9-1c0.2-0.2,0.3-0.3,0.4-0.5
			c0.3-0.4,0.6-0.8,0.9-1.1c0.1-0.2,0.2-0.3,0.3-0.4c0.3-0.3,0.5-0.7,0.7-1c0.1-0.1,0.2-0.3,0.3-0.4c0.3-0.4,0.6-0.8,0.8-1.2
			c0.1-0.2,0.2-0.3,0.3-0.5c0.3-0.4,0.5-0.9,0.8-1.3c0.1-0.2,0.2-0.3,0.2-0.4c0.2-0.4,0.5-0.8,0.7-1.3c0.1-0.1,0.1-0.2,0.1-0.3
			c0.3-0.5,0.5-1,0.7-1.5c0.1-0.2,0.1-0.3,0.2-0.4c0.2-0.5,0.4-1,0.6-1.5c0.1-0.1,0.1-0.2,0.1-0.4c0.2-0.5,0.4-1,0.5-1.5
			c0-0.1,0.1-0.1,0.1-0.2c0.2-0.6,0.4-1.1,0.5-1.7c0.1-0.1,0.1-0.2,0.1-0.4c0.2-0.6,0.3-1.1,0.4-1.7c0-0.1,0.1-0.2,0.1-0.3
			c0.1-0.6,0.3-1.1,0.3-1.8v-0.1c0.1-0.6,0.2-1.2,0.3-1.8c0-0.1,0.1-0.2,0.1-0.3c0.1-0.6,0.1-1.2,0.2-1.8c0-0.1,0-0.2,0-0.3
			c0.1-0.6,0.1-1.2,0.1-1.9c0.2-22.2-17.6-40.4-39.8-40.5C39.1-30.3,20.9-12.5,20.7,9.7c0,0.6,0,1.2,0.1,1.9c0,0.1,0,0.2,0,0.4
			c0.1,0.6,0.1,1.2,0.1,1.8c0,0.1,0,0.2,0.1,0.4c0.1,0.6,0.1,1.2,0.2,1.8v0.1c0.1,0.6,0.2,1.1,0.3,1.7c0,0.1,0.1,0.2,0.1,0.4
			c0.1,0.6,0.3,1.1,0.4,1.7c0.1,0.1,0.1,0.3,0.1,0.4c0.2,0.6,0.3,1.1,0.5,1.7c0,0.1,0.1,0.1,0.1,0.2c0.2,0.5,0.3,1,0.5,1.5
			c0.1,0.1,0.1,0.3,0.2,0.4c0.2,0.5,0.4,1,0.6,1.5c0.1,0.2,0.1,0.3,0.2,0.4c0.2,0.5,0.4,1,0.7,1.5c0.1,0.1,0.1,0.2,0.2,0.3
			c0.2,0.4,0.4,0.8,0.6,1.2c0.1,0.2,0.2,0.3,0.2,0.4c0.3,0.5,0.5,0.9,0.7,1.3c0.1,0.2,0.2,0.3,0.3,0.5c0.3,0.4,0.5,0.8,0.8,1.2
			c0.1,0.2,0.2,0.3,0.3,0.5c0.2,0.3,0.5,0.7,0.7,1c0.1,0.2,0.2,0.3,0.4,0.5c0.3,0.4,0.6,0.8,0.9,1.1c0.2,0.2,0.3,0.4,0.4,0.5
			c0.3,0.3,0.6,0.7,0.8,1c0.2,0.2,0.3,0.4,0.5,0.6c0.3,0.3,0.5,0.5,0.7,0.8c0.2,0.2,0.3,0.3,0.5,0.5c0.3,0.3,0.7,0.6,1,0.9
			c0.2,0.2,0.4,0.3,0.5,0.5c0.3,0.3,0.6,0.5,0.9,0.8c0.2,0.2,0.5,0.4,0.7,0.6c0.3,0.2,0.5,0.4,0.7,0.6c0.2,0.2,0.4,0.3,0.6,0.4
			c-1.2,2.3-2.1,4.7-2.7,7.3c7,6.3,16.3,10.1,26.4,10.2C70.7,59.7,80,56,87.1,49.8c-0.6-2.6-1.4-5.1-2.6-7.3l0,0
			c0.2-0.1,0.4-0.3,0.5-0.4c0.3-0.2,0.6-0.4,0.8-0.6c0.2-0.2,0.4-0.3,0.6-0.5c0.3-0.3,0.7-0.6,1-0.8c0.2-0.2,0.4-0.3,0.5-0.5
			c0.4-0.3,0.7-0.6,1-1c0.2-0.2,0.3-0.3,0.5-0.5C89.8,38.1,90,37.9,90.3,37.6z"/>
		<defs>
			<filter id="Adobe_OpacityMaskFilter" filterUnits="userSpaceOnUse" x="15.1" y="-33.4" width="89.5" height="94.6">
				<feColorMatrix  type="matrix" values="1 0 0 0 0  0 1 0 0 0  0 0 1 0 0  0 0 0 1 0"/>
			</filter>
		</defs>
		<mask maskUnits="userSpaceOnUse" x="15.1" y="-33.4" width="89.5" height="94.6" id="SVGID_2_">
			<g style="filter:url(#Adobe_OpacityMaskFilter);">
				
					<radialGradient id="SVGID_5_" cx="118.3145" cy="28.8481" r="9.1775" gradientTransform="matrix(4.6414 4.250000e-02 4.250000e-02 -4.6415 -489.4438 143.6316)" gradientUnits="userSpaceOnUse">
					<stop  offset="0" style="stop-color:#FFFFFF"/>
					<stop  offset="0.5531" style="stop-color:#FDFDFD"/>
					<stop  offset="0.7524" style="stop-color:#F6F6F6"/>
					<stop  offset="0.8939" style="stop-color:#EBEBEB"/>
					<stop  offset="1" style="stop-color:#DBDBDB"/>
				</radialGradient>
				<path style="fill:url(#SVGID_5_);" d="M101.1,10.4c0.2-22.2-17.6-40.3-39.8-40.5C39.1-30.3,21-12.5,20.8,9.7
					c-0.1,13.3,6.2,25.1,16,32.5c-1.2,2.3-2.1,4.7-2.7,7.3c7,6.3,16.3,10.1,26.4,10.2C70.7,59.8,80,56,87.1,49.9
					c-0.6-2.6-1.4-5.1-2.6-7.3C94.5,35.3,101,23.7,101.1,10.4z"/>
			</g>
		</mask>
		
			<linearGradient id="SVGID_6_" gradientUnits="userSpaceOnUse" x1="418.3613" y1="-162.9365" x2="418.3613" y2="-256.7642" gradientTransform="matrix(1 9.200000e-03 9.200000e-03 -1 -356.5854 -199.8115)">
			<stop  offset="0" style="stop-color:#FFFFFF"/>
			<stop  offset="0.3412" style="stop-color:#A4A4A4"/>
			<stop  offset="0.967" style="stop-color:#000000"/>
		</linearGradient>
		<polygon style="mask:url(#SVGID_2_);fill:url(#SVGID_6_);" points="103.7,61.2 59.4,60.8 15.1,60.4 15.5,13.5 15.9,-33.4 
			60.3,-33 104.6,-32.6 104.2,14.3 		"/>
		<g>
			<path style="opacity:0.55;enable-background:new    ;" d="M60.1,41c0,2.7-1.2,4.9-2.7,4.9c-1.4,0-2.6-2.2-2.6-4.9
				c0-2.7,1.2-4.9,2.7-4.9C59,36.1,60.1,38.3,60.1,41z"/>
			<path style="opacity:0.55;enable-background:new    ;" d="M66.7,41.1c0,2.7-1.2,4.9-2.7,4.9c-1.4,0-2.6-2.2-2.6-4.9
				c0.1-2.7,1.2-4.9,2.7-4.9C65.6,36.2,66.7,38.3,66.7,41.1z"/>
		</g>
		<g style="opacity:0.61;">
			<path d="M55.6,50c-2.5,0-4.5,2.7-4.5,6.1c0,0.7,0.1,1.3,0.2,2c2.6,0.9,5.2,1.4,7.9,1.5c0.5-1,0.8-2.2,0.8-3.5
				C60,52.7,58.1,50,55.6,50z"/>
		</g>
		<g style="opacity:0.61;">
			<path d="M45.7,47.4c-2.4,0-4.8,3.6-4.9,6.8c2.6,1.6,5.2,2.6,7.9,3.5c0.9-1.1,1.4-2.7,1.4-4.3C50.2,50.2,48.2,47.4,45.7,47.4z"/>
		</g>
		<g style="opacity:0.4;">
			<path style="opacity:0.61;" d="M75.7,47.5c-2.5,0-4.5,2.7-4.5,6.1c0,1.7,0.5,3.2,1.3,4.4c3.1-1,5.4-2,8-3.3
				C80.4,51.3,78.2,47.5,75.7,47.5z"/>
		</g>
		<g style="opacity:0.61;">
			<path d="M65.7,50c-2.5,0-4.5,2.7-4.5,6.2c0,1.2,0.3,2.5,0.7,3.5c2.7-0.1,5.3-0.6,7.9-1.4c0.2-0.6,0.3-1.3,0.3-2
				C70.2,52.8,68.1,50,65.7,50z"/>
		</g>
	</g>
</g>
<g id="eyes_1_">
	<g>
		
			<radialGradient id="SVGID_7_" cx="114.3105" cy="27.8652" r="3.1127" gradientTransform="matrix(4.6414 4.250000e-02 4.250000e-02 -4.6415 -489.4438 143.6316)" gradientUnits="userSpaceOnUse">
			<stop  offset="0" style="stop-color:#FFFFFF"/>
			<stop  offset="3.486179e-02" style="stop-color:#F4F4F4"/>
			<stop  offset="0.3856" style="stop-color:#8D8D8D"/>
			<stop  offset="0.6677" style="stop-color:#414141"/>
			<stop  offset="0.8676" style="stop-color:#121212"/>
			<stop  offset="0.967" style="stop-color:#000000"/>
		</radialGradient>
		<path style="opacity:0.55;fill:url(#SVGID_7_);enable-background:new    ;" d="M53.8,19.2c-0.1,6.4-5.3,11.5-11.6,11.4
			c-6.4-0.1-11.5-5.3-11.4-11.6c0-0.3,0-0.7,0.1-1h-2.9c0,0.3-0.1,0.7-0.1,1c-0.1,8,6.4,14.5,14.3,14.6c8,0.1,14.5-6.4,14.6-14.3
			c0-0.4,0-0.9,0-1.3h-2.9C53.8,18.4,53.8,18.8,53.8,19.2z"/>
		
			<radialGradient id="SVGID_8_" cx="114.3105" cy="27.8652" r="3.1127" gradientTransform="matrix(4.6414 4.250000e-02 4.250000e-02 -4.6415 -489.4438 143.6316)" gradientUnits="userSpaceOnUse">
			<stop  offset="0" style="stop-color:#FFFFFF"/>
			<stop  offset="3.486179e-02" style="stop-color:#F4F4F4"/>
			<stop  offset="0.3856" style="stop-color:#8D8D8D"/>
			<stop  offset="0.6677" style="stop-color:#414141"/>
			<stop  offset="0.8676" style="stop-color:#121212"/>
			<stop  offset="0.967" style="stop-color:#000000"/>
		</radialGradient>
		<path style="opacity:0.55;fill:url(#SVGID_8_);enable-background:new    ;" d="M42.2,30.6c6.4,0.1,11.5-5.1,11.6-11.4
			c0-0.4,0-0.8-0.1-1.2h-6c0.1,0.4,0.1,0.8,0.1,1.2c-0.1,3.1-2.6,5.6-5.7,5.6c-3.1-0.1-5.6-2.6-5.6-5.7c0-0.4,0-0.7,0.1-1.1h-5.9
			c0,0.3-0.1,0.7-0.1,1C30.8,25.4,35.9,30.6,42.2,30.6z"/>
		
			<radialGradient id="SVGID_9_" cx="114.3164" cy="27.8657" r="2.4778" gradientTransform="matrix(4.6414 4.250000e-02 4.250000e-02 -4.6415 -489.4438 143.6316)" gradientUnits="userSpaceOnUse">
			<stop  offset="0" style="stop-color:#FFFFFF"/>
			<stop  offset="3.486179e-02" style="stop-color:#F4F4F4"/>
			<stop  offset="0.3856" style="stop-color:#8D8D8D"/>
			<stop  offset="0.6677" style="stop-color:#414141"/>
			<stop  offset="0.8676" style="stop-color:#121212"/>
			<stop  offset="0.967" style="stop-color:#000000"/>
		</radialGradient>
		<path style="opacity:0.55;fill:url(#SVGID_9_);enable-background:new    ;" d="M42.2,30.6c6.4,0.1,11.5-5.1,11.6-11.4
			c0-0.4,0-0.8-0.1-1.2h-6c0.1,0.4,0.1,0.8,0.1,1.2c-0.1,3.1-2.6,5.6-5.7,5.6c-3.1-0.1-5.6-2.6-5.6-5.7c0-0.4,0-0.7,0.1-1.1h-5.9
			c0,0.3-0.1,0.7-0.1,1C30.8,25.4,35.9,30.6,42.2,30.6z"/>
		
			<radialGradient id="SVGID_10_" cx="114.3105" cy="27.8652" r="3.1127" gradientTransform="matrix(4.6414 4.250000e-02 4.250000e-02 -4.6415 -489.4438 143.6316)" gradientUnits="userSpaceOnUse">
			<stop  offset="0" style="stop-color:#FFFFFF"/>
			<stop  offset="3.486179e-02" style="stop-color:#F4F4F4"/>
			<stop  offset="0.3856" style="stop-color:#8D8D8D"/>
			<stop  offset="0.6677" style="stop-color:#414141"/>
			<stop  offset="0.8676" style="stop-color:#121212"/>
			<stop  offset="0.967" style="stop-color:#000000"/>
		</radialGradient>
		<path style="opacity:0.55;fill:url(#SVGID_10_);enable-background:new    ;" d="M42.3,24.8c3.1,0,5.6-2.5,5.7-5.6
			c0-0.4,0-0.8-0.1-1.2h-11c-0.1,0.3-0.1,0.7-0.1,1.1C36.7,22.2,39.2,24.7,42.3,24.8z"/>
		
			<radialGradient id="SVGID_11_" cx="114.3164" cy="27.8657" r="2.4778" gradientTransform="matrix(4.6414 4.250000e-02 4.250000e-02 -4.6415 -489.4438 143.6316)" gradientUnits="userSpaceOnUse">
			<stop  offset="0" style="stop-color:#FFFFFF"/>
			<stop  offset="3.486179e-02" style="stop-color:#F4F4F4"/>
			<stop  offset="0.3856" style="stop-color:#8D8D8D"/>
			<stop  offset="0.6677" style="stop-color:#414141"/>
			<stop  offset="0.8676" style="stop-color:#121212"/>
			<stop  offset="0.967" style="stop-color:#000000"/>
		</radialGradient>
		<path style="opacity:0.55;fill:url(#SVGID_11_);enable-background:new    ;" d="M42.3,24.8c3.1,0,5.6-2.5,5.7-5.6
			c0-0.4,0-0.8-0.1-1.2h-11c-0.1,0.3-0.1,0.7-0.1,1.1C36.7,22.2,39.2,24.7,42.3,24.8z"/>
		
			<radialGradient id="SVGID_12_" cx="114.3164" cy="27.8672" r="1.2107" gradientTransform="matrix(4.6414 4.250000e-02 4.250000e-02 -4.6415 -489.4438 143.6316)" gradientUnits="userSpaceOnUse">
			<stop  offset="0" style="stop-color:#FFFFFF"/>
			<stop  offset="3.486179e-02" style="stop-color:#F4F4F4"/>
			<stop  offset="0.3856" style="stop-color:#8D8D8D"/>
			<stop  offset="0.6677" style="stop-color:#414141"/>
			<stop  offset="0.8676" style="stop-color:#121212"/>
			<stop  offset="0.967" style="stop-color:#000000"/>
		</radialGradient>
		<path style="opacity:0.55;fill:url(#SVGID_12_);enable-background:new    ;" d="M42.3,24.8c3.1,0,5.6-2.5,5.7-5.6
			c0-0.4,0-0.8-0.1-1.2h-11c-0.1,0.3-0.1,0.7-0.1,1.1C36.7,22.2,39.2,24.7,42.3,24.8z"/>
		
			<radialGradient id="SVGID_13_" cx="122.3643" cy="27.9395" r="3.1094" gradientTransform="matrix(4.6414 4.250000e-02 4.250000e-02 -4.6415 -489.4438 143.6316)" gradientUnits="userSpaceOnUse">
			<stop  offset="0" style="stop-color:#FFFFFF"/>
			<stop  offset="3.486179e-02" style="stop-color:#F4F4F4"/>
			<stop  offset="0.3856" style="stop-color:#8D8D8D"/>
			<stop  offset="0.6677" style="stop-color:#414141"/>
			<stop  offset="0.8676" style="stop-color:#121212"/>
			<stop  offset="0.967" style="stop-color:#000000"/>
		</radialGradient>
		<path style="opacity:0.55;fill:url(#SVGID_13_);enable-background:new    ;" d="M91.2,19.2c-0.1,6.4-5.3,11.5-11.6,11.4
			c-6.4-0.1-11.5-5.3-11.4-11.6c0-0.3,0-0.7,0.1-1h-2.9c0,0.3-0.1,0.7-0.1,1c-0.1,8,6.4,14.5,14.3,14.6c8,0.1,14.5-6.4,14.6-14.3
			c0-0.4,0-0.9-0.1-1.3h-2.9C91.2,18.4,91.2,18.8,91.2,19.2z"/>
		
			<radialGradient id="SVGID_14_" cx="122.3594" cy="27.9395" r="3.1154" gradientTransform="matrix(4.6414 4.250000e-02 4.250000e-02 -4.6415 -489.4438 143.6316)" gradientUnits="userSpaceOnUse">
			<stop  offset="0" style="stop-color:#FFFFFF"/>
			<stop  offset="3.486179e-02" style="stop-color:#F4F4F4"/>
			<stop  offset="0.3856" style="stop-color:#8D8D8D"/>
			<stop  offset="0.6677" style="stop-color:#414141"/>
			<stop  offset="0.8676" style="stop-color:#121212"/>
			<stop  offset="0.967" style="stop-color:#000000"/>
		</radialGradient>
		<path style="opacity:0.55;fill:url(#SVGID_14_);enable-background:new    ;" d="M79.6,30.6c6.4,0.1,11.6-5.1,11.6-11.4
			c0-0.4,0-0.8-0.1-1.2h-5.9c0.1,0.4,0.1,0.8,0.1,1.2c-0.1,3.1-2.6,5.6-5.7,5.6c-3.1-0.1-5.6-2.6-5.6-5.7c0-0.4,0-0.7,0.1-1.1h-5.9
			c0,0.3-0.1,0.7-0.1,1C68.1,25.4,73.2,30.6,79.6,30.6z"/>
		
			<radialGradient id="SVGID_15_" cx="122.3594" cy="27.9453" r="2.475" gradientTransform="matrix(4.6414 4.250000e-02 4.250000e-02 -4.6415 -489.4438 143.6316)" gradientUnits="userSpaceOnUse">
			<stop  offset="0" style="stop-color:#FFFFFF"/>
			<stop  offset="3.486179e-02" style="stop-color:#F4F4F4"/>
			<stop  offset="0.3856" style="stop-color:#8D8D8D"/>
			<stop  offset="0.6677" style="stop-color:#414141"/>
			<stop  offset="0.8676" style="stop-color:#121212"/>
			<stop  offset="0.967" style="stop-color:#000000"/>
		</radialGradient>
		<path style="opacity:0.55;fill:url(#SVGID_15_);enable-background:new    ;" d="M79.6,30.6c6.4,0.1,11.6-5.1,11.6-11.4
			c0-0.4,0-0.8-0.1-1.2h-5.9c0.1,0.4,0.1,0.8,0.1,1.2c-0.1,3.1-2.6,5.6-5.7,5.6c-3.1-0.1-5.6-2.6-5.6-5.7c0-0.4,0-0.7,0.1-1.1h-5.9
			c0,0.3-0.1,0.7-0.1,1C68.1,25.4,73.2,30.6,79.6,30.6z"/>
		
			<radialGradient id="SVGID_16_" cx="122.3643" cy="27.9395" r="3.1094" gradientTransform="matrix(4.6414 4.250000e-02 4.250000e-02 -4.6415 -489.4438 143.6316)" gradientUnits="userSpaceOnUse">
			<stop  offset="0" style="stop-color:#FFFFFF"/>
			<stop  offset="3.486179e-02" style="stop-color:#F4F4F4"/>
			<stop  offset="0.3856" style="stop-color:#8D8D8D"/>
			<stop  offset="0.6677" style="stop-color:#414141"/>
			<stop  offset="0.8676" style="stop-color:#121212"/>
			<stop  offset="0.967" style="stop-color:#000000"/>
		</radialGradient>
		<path style="opacity:0.55;fill:url(#SVGID_16_);enable-background:new    ;" d="M79.6,24.8c3.1,0,5.6-2.5,5.7-5.6
			c0-0.4,0-0.8-0.1-1.2h-11c-0.1,0.3-0.1,0.7-0.1,1.1C74,22.2,76.5,24.7,79.6,24.8z"/>
		
			<radialGradient id="SVGID_17_" cx="122.3594" cy="27.9453" r="2.475" gradientTransform="matrix(4.6414 4.250000e-02 4.250000e-02 -4.6415 -489.4438 143.6316)" gradientUnits="userSpaceOnUse">
			<stop  offset="0" style="stop-color:#FFFFFF"/>
			<stop  offset="3.486179e-02" style="stop-color:#F4F4F4"/>
			<stop  offset="0.3856" style="stop-color:#8D8D8D"/>
			<stop  offset="0.6677" style="stop-color:#414141"/>
			<stop  offset="0.8676" style="stop-color:#121212"/>
			<stop  offset="0.967" style="stop-color:#000000"/>
		</radialGradient>
		<path style="opacity:0.55;fill:url(#SVGID_17_);enable-background:new    ;" d="M79.6,24.8c3.1,0,5.6-2.5,5.7-5.6
			c0-0.4,0-0.8-0.1-1.2h-11c-0.1,0.3-0.1,0.7-0.1,1.1C74,22.2,76.5,24.7,79.6,24.8z"/>
		
			<radialGradient id="SVGID_18_" cx="122.3594" cy="27.9409" r="1.2113" gradientTransform="matrix(4.6414 4.250000e-02 4.250000e-02 -4.6415 -489.4438 143.6316)" gradientUnits="userSpaceOnUse">
			<stop  offset="0" style="stop-color:#FFFFFF"/>
			<stop  offset="3.486179e-02" style="stop-color:#F4F4F4"/>
			<stop  offset="0.3856" style="stop-color:#8D8D8D"/>
			<stop  offset="0.6677" style="stop-color:#414141"/>
			<stop  offset="0.8676" style="stop-color:#121212"/>
			<stop  offset="0.967" style="stop-color:#000000"/>
		</radialGradient>
		<path style="opacity:0.55;fill:url(#SVGID_18_);enable-background:new    ;" d="M79.6,24.8c3.1,0,5.6-2.5,5.7-5.6
			c0-0.4,0-0.8-0.1-1.2h-11c-0.1,0.3-0.1,0.7-0.1,1.1C74,22.2,76.5,24.7,79.6,24.8z"/>
	</g>
</g>
</svg>
