<?xml version="1.0" encoding="utf-8"?>
<!-- Generator: Adobe Illustrator 14.0.0, SVG Export Plug-In . SVG Version: 6.00 Build 43363)  -->
<!DOCTYPE svg PUBLIC "-//W3C//DTD SVG 1.1//EN" "http://www.w3.org/Graphics/SVG/1.1/DTD/svg11.dtd">
<svg version="1.1" xmlns="http://www.w3.org/2000/svg" xmlns:xlink="http://www.w3.org/1999/xlink" x="0px" y="0px" width="150px"
	 height="140px" viewBox="0 0 150 140" style="enable-background:new 0 0 150 140;" xml:space="preserve">
<g id="Layer_2">
	<rect style="fill:#FFFFFF;" width="150" height="140"/>
</g>
<g id="body">
	
		<radialGradient id="SVGID_1_" cx="52.2344" cy="-0.3423" r="9.1786" gradientTransform="matrix(4.6414 4.250000e-02 -4.250000e-02 4.6415 -128.6281 86.9244)" gradientUnits="userSpaceOnUse">
		<stop  offset="0" style="stop-color:#FFFFFF"/>
		<stop  offset="0.1557" style="stop-color:#F7DDDC"/>
		<stop  offset="0.5685" style="stop-color:#E18786"/>
		<stop  offset="0.8594" style="stop-color:#D4514F"/>
		<stop  offset="1" style="stop-color:#CF3C3A"/>
	</radialGradient>
	<path style="fill:url(#SVGID_1_);" d="M62.4,99.3c13.6,12.2,31.5,19.6,51.2,19.8c19.7,0.2,37.7-7,51.5-18.9
		c-5.4-25.1-26.1-44-50.9-44.2C89.3,55.8,68.2,74.2,62.4,99.3z"/>
	
		<radialGradient id="SVGID_2_" cx="52.2344" cy="-14.2646" r="16.7686" gradientTransform="matrix(4.6414 4.250000e-02 -4.250000e-02 4.6415 -128.6281 86.9244)" gradientUnits="userSpaceOnUse">
		<stop  offset="0" style="stop-color:#FFFFFF"/>
		<stop  offset="0.1557" style="stop-color:#F7DDDC"/>
		<stop  offset="0.5685" style="stop-color:#E18786"/>
		<stop  offset="0.8594" style="stop-color:#D4514F"/>
		<stop  offset="1" style="stop-color:#CF3C3A"/>
	</radialGradient>
	<path style="fill:url(#SVGID_2_);" d="M192.2,23.6c-0.4,43-35.6,77.5-78.5,77.1c-43-0.4-77.5-35.6-77.1-78.5
		c0.4-43,35.6-77.5,78.5-77.1C158.1-54.5,192.6-19.3,192.2,23.6z"/>
	<radialGradient id="SVGID_3_" cx="114.4131" cy="32.0928" r="82.5402" gradientUnits="userSpaceOnUse">
		<stop  offset="0" style="stop-color:#FFFFFF"/>
		<stop  offset="0.1557" style="stop-color:#F7DDDC"/>
		<stop  offset="0.5685" style="stop-color:#E18786"/>
		<stop  offset="0.8594" style="stop-color:#D4514F"/>
		<stop  offset="1" style="stop-color:#CF3C3A"/>
	</radialGradient>
	<path style="fill:url(#SVGID_3_);" d="M192.2,23.6c0.4-43-34.1-78.2-77.1-78.5c-43-0.4-78.1,34.1-78.5,77.1
		c-0.2,25.7,12,48.6,31,62.9c-2.3,4.4-4.1,9.1-5.3,14.1c13.6,12.2,31.5,19.6,51.2,19.8c19.7,0.2,37.7-7,51.5-18.9
		c-1.1-5-2.8-9.8-5-14.2C179.4,72,192,49.3,192.2,23.6z"/>
	<g>
		<path style="fill:#E86CA1;" d="M78.3,93.6c-2.6,8.3-1,15.2,0.4,21.2c0.9,3.9,1.7,7.2,1.4,10.7l0,0.3l0,0.3
			c0.1,3.5-0.7,6.9-2.5,10.8l0,0c-1.6,3.4-0.1,7.3,3.3,8.9c3.4,1.6,7.3,0.1,8.9-3.3l0,0c1.7-3.7,3.9-9.4,3.7-16.7l0,0.7
			c0.4-5.6-0.7-10.5-1.7-14.8c-1.2-5.2-2.2-9.4-0.7-14.2l0,0c1.1-3.5-0.9-7.3-4.4-8.4C83.1,88.1,79.4,90.1,78.3,93.6L78.3,93.6z"/>
	</g>
	<g>
		<path style="fill:#E86CA1;" d="M96.7,104.7c-2,8.5,0.1,15.2,1.9,21.1c1.2,3.8,2.2,7.1,2.2,10.6l0,0.3l0,0.3
			c0.6,6.2-1.4,10.3-2.9,13.4c-0.4,0.9-0.8,1.6-1.1,2.4l0,0c-1.3,3.5,0.4,7.3,3.9,8.6c3.5,1.3,7.3-0.5,8.6-3.9l0,0
			c0.1-0.2,0.4-0.8,0.6-1.3c1.8-3.7,5.1-10.6,4.1-20.5l0,0.7c0-5.6-1.5-10.4-2.8-14.7c-1.6-5.1-2.8-9.2-1.7-14.1l0,0
			c0.8-3.6-1.4-7.2-5-8.1C101.1,98.8,97.5,101.1,96.7,104.7L96.7,104.7z"/>
	</g>
	<g>
		<path style="fill:#E86CA1;" d="M133.4,96.6c-1.1,9.6,2.2,16.8,5.2,23.2c1.8,4,3.6,7.8,4.1,11.8l0,0.3l0.1,0.3
			c1.6,7.1-0.2,12.3-1.5,15.8c-0.4,1-0.7,1.9-0.9,2.8l0,0c-0.9,3.6,1.3,7.2,4.9,8.1c3.6,0.9,7.2-1.3,8.1-4.9l0,0
			c0.1-0.3,0.3-1,0.5-1.7c1.5-4.3,4.3-12.4,1.9-23.2l0.1,0.7c-0.7-6.2-3.1-11.3-5.2-15.9c-2.5-5.4-4.7-10.1-4-16l0,0
			c0.4-3.7-2.2-7-5.9-7.4C137.2,90.3,133.9,93,133.4,96.6L133.4,96.6z"/>
	</g>
	<g>
		<path style="fill:#E86CA1;" d="M113.7,90.5c-4,11.5,0.6,23.2,4.6,33.4c2.8,7.1,5.4,13.7,5.4,19.8c0,10.1-2.4,15.8-3.9,19.1
			c-0.5,1.3-1,2.3-1.3,3.5l0,0c-0.9,3.6,1.3,7.2,4.8,8.2c3.6,0.9,7.2-1.3,8.2-4.8l0,0l0,0.1c0.1-0.2,0.4-1,0.6-1.6
			c1.7-4,4.9-11.6,4.9-24.4c0-8.7-3.2-16.9-6.4-24.8c-3.5-8.9-6.8-17.2-4.4-24l0,0c1.2-3.5-0.6-7.3-4.1-8.5
			C118.8,85.1,114.9,87,113.7,90.5L113.7,90.5z"/>
	</g>
	<path style="fill:#FFFFFF;" d="M171,76.4c0.3-0.3,0.6-0.6,0.9-0.9c0.6-0.6,1.2-1.3,1.7-2c0.3-0.3,0.5-0.6,0.8-0.9
		c0.6-0.7,1.2-1.5,1.8-2.2c0.2-0.3,0.4-0.6,0.6-0.8c0.5-0.6,1-1.3,1.4-2c0.2-0.2,0.3-0.5,0.5-0.7c0.6-0.8,1.1-1.6,1.6-2.4
		c0.2-0.3,0.4-0.6,0.5-0.9c0.5-0.8,1-1.7,1.5-2.6c0.1-0.3,0.3-0.5,0.4-0.8c0.4-0.8,0.9-1.6,1.3-2.5c0.1-0.2,0.2-0.3,0.2-0.5
		c0.5-0.9,0.9-1.9,1.3-2.9c0.1-0.3,0.2-0.5,0.3-0.8c0.4-1,0.8-1.9,1.2-2.9c0.1-0.2,0.2-0.4,0.2-0.7c0.4-1,0.7-2,1-3
		c0-0.1,0.1-0.2,0.1-0.3c0.3-1.1,0.7-2.1,0.9-3.2c0.1-0.2,0.1-0.4,0.2-0.7c0.3-1.1,0.5-2.1,0.8-3.2c0-0.2,0.1-0.4,0.1-0.6
		c0.2-1.1,0.5-2.2,0.6-3.4c0,0,0-0.1,0-0.1c0.2-1.2,0.3-2.3,0.5-3.5c0-0.2,0.1-0.4,0.1-0.6c0.1-1.1,0.2-2.3,0.3-3.4
		c0-0.2,0-0.4,0-0.6c0.1-1.2,0.1-2.4,0.1-3.6c0.4-43-34.1-78.2-77.1-78.5c-43-0.4-78.1,34.1-78.5,77.1c0,1.2,0,2.4,0.1,3.6
		c0,0.2,0,0.4,0,0.7c0.1,1.1,0.1,2.3,0.2,3.4c0,0.2,0,0.4,0.1,0.7c0.1,1.2,0.2,2.3,0.4,3.5c0,0,0,0.1,0,0.1c0.2,1.1,0.4,2.2,0.6,3.3
		c0,0.2,0.1,0.4,0.1,0.7c0.2,1.1,0.5,2.1,0.7,3.2c0.1,0.2,0.1,0.5,0.2,0.7c0.3,1.1,0.6,2.1,0.9,3.2c0,0.1,0.1,0.2,0.1,0.3
		c0.3,1,0.6,1.9,1,2.9c0.1,0.2,0.2,0.5,0.3,0.7c0.4,1,0.7,2,1.1,2.9c0.1,0.3,0.2,0.5,0.3,0.8c0.4,1,0.8,1.9,1.3,2.9
		c0.1,0.2,0.2,0.4,0.3,0.6c0.4,0.8,0.8,1.6,1.2,2.4c0.1,0.3,0.3,0.6,0.4,0.8c0.5,0.9,0.9,1.7,1.4,2.6c0.2,0.3,0.4,0.6,0.5,0.9
		c0.5,0.8,1,1.6,1.5,2.4c0.2,0.3,0.4,0.6,0.6,0.9c0.4,0.6,0.9,1.3,1.3,1.9c0.2,0.3,0.4,0.6,0.7,0.9c0.6,0.7,1.1,1.5,1.7,2.2
		c0.3,0.3,0.5,0.7,0.8,1c0.5,0.6,1.1,1.3,1.6,1.9c0.3,0.4,0.6,0.7,1,1.1c0.5,0.5,0.9,1,1.4,1.5c0.3,0.3,0.6,0.6,0.9,0.9
		c0.6,0.6,1.3,1.2,1.9,1.8c0.3,0.3,0.7,0.6,1,0.9c0.6,0.5,1.1,1,1.7,1.5c0.4,0.4,0.9,0.7,1.3,1.1c0.5,0.4,1,0.8,1.4,1.1
		c0.4,0.3,0.7,0.6,1.1,0.8c-2.3,4.4-4.1,9.1-5.3,14.1c13.6,12.2,31.5,19.6,51.2,19.8c19.7,0.2,37.7-7,51.5-18.9
		c-1.1-5-2.8-9.8-5-14.2c0,0,0,0,0,0c0.3-0.2,0.7-0.5,1-0.7c0.5-0.4,1.1-0.8,1.6-1.2c0.4-0.3,0.7-0.6,1.1-0.9
		c0.6-0.5,1.3-1.1,1.9-1.6c0.3-0.3,0.7-0.6,1-0.9c0.7-0.6,1.3-1.2,2-1.9c0.3-0.3,0.6-0.6,0.9-0.9C170,77.4,170.5,76.9,171,76.4z"/>
	<defs>
		<filter id="Adobe_OpacityMaskFilter" filterUnits="userSpaceOnUse" x="25.4" y="-61.2" width="173.3" height="183.3">
			<feColorMatrix  type="matrix" values="1 0 0 0 0  0 1 0 0 0  0 0 1 0 0  0 0 0 1 0"/>
		</filter>
	</defs>
	<mask maskUnits="userSpaceOnUse" x="25.4" y="-61.2" width="173.3" height="183.3" id="SVGID_4_">
		<g style="filter:url(#Adobe_OpacityMaskFilter);">
			
				<radialGradient id="SVGID_5_" cx="52.187" cy="-12.2861" r="17.7827" gradientTransform="matrix(4.6414 4.250000e-02 -4.250000e-02 4.6415 -128.6281 86.9244)" gradientUnits="userSpaceOnUse">
				<stop  offset="0" style="stop-color:#FFFFFF"/>
				<stop  offset="0.5531" style="stop-color:#FDFDFD"/>
				<stop  offset="0.7524" style="stop-color:#F6F6F6"/>
				<stop  offset="0.8939" style="stop-color:#EBEBEB"/>
				<stop  offset="1" style="stop-color:#DBDBDB"/>
			</radialGradient>
			<path style="fill:url(#SVGID_5_);" d="M192,23.7c0.4-43-34.1-78.1-77.1-78.5c-43-0.4-78.1,34.1-78.5,77.1
				c-0.2,25.7,12,48.6,31,62.9c-2.3,4.4-4.1,9.1-5.3,14.1c13.6,12.2,31.5,19.6,51.2,19.8c19.7,0.2,37.7-7,51.5-18.9
				c-1.1-5-2.8-9.8-5-14.2C179.1,72,191.8,49.4,192,23.7z"/>
		</g>
	</mask>
	
		<linearGradient id="SVGID_6_" gradientUnits="userSpaceOnUse" x1="112.2529" y1="-61.6318" x2="112.2529" y2="120.0571" gradientTransform="matrix(1 9.200000e-03 -9.200000e-03 1 6.192577e-02 0.1924)">
		<stop  offset="0" style="stop-color:#FFFFFF"/>
		<stop  offset="0.3412" style="stop-color:#A4A4A4"/>
		<stop  offset="0.967" style="stop-color:#000000"/>
	</linearGradient>
	<polygon style="mask:url(#SVGID_4_);fill:url(#SVGID_6_);" points="197,122.1 111.2,121.3 25.4,120.5 26.2,29.7 27,-61.2 
		112.9,-60.4 198.7,-59.6 197.9,31.2 	"/>
	<g>
		<path style="opacity:0.55;" d="M112.6,82.9c0,5.2-2.4,9.5-5.2,9.4c-2.8,0-5-4.3-5-9.5c0-5.2,2.4-9.5,5.2-9.4
			C110.4,73.5,112.6,77.7,112.6,82.9z"/>
		<path style="opacity:0.55;" d="M125.3,83.1c0,5.2-2.4,9.5-5.2,9.4c-2.8,0-5-4.3-5-9.5c0.1-5.2,2.4-9.5,5.2-9.4
			C123.1,73.6,125.4,77.8,125.3,83.1z"/>
	</g>
	<g style="opacity:0.4;">
		<path d="M103.8,100.3c-4.8,0-8.7,5.3-8.7,11.9c0,1.3,0.1,2.6,0.4,3.8c5,1.7,10.1,2.7,15.3,3c1-2,1.5-4.3,1.5-6.7
			C112.4,105.7,108.6,100.3,103.8,100.3z"/>
	</g>
	<g style="opacity:0.4;">
		<path d="M84.7,95.4c-4.7,0-9.3,6.9-9.4,13.2c5.1,3.1,10,5,15.3,6.8c1.7-2.2,2.7-5.2,2.7-8.3C93.3,100.7,89.5,95.4,84.7,95.4z"/>
	</g>
	<g style="opacity:0.4;">
		<path d="M142.8,95.5c-4.8,0-8.7,5.2-8.7,11.8c0,3.2,0.9,6.2,2.5,8.5c6.1-1.9,10.4-3.9,15.4-6.4C151.8,103,147.5,95.6,142.8,95.5z"
			/>
	</g>
	<g style="opacity:0.4;">
		<path d="M123.4,100.3c-4.8,0-8.7,5.3-8.7,12c0,2.4,0.5,4.8,1.4,6.8c5.2-0.2,10.3-1.1,15.3-2.7c0.3-1.2,0.5-2.5,0.5-3.9
			C132,105.8,128.1,100.4,123.4,100.3z"/>
	</g>
</g>
<g id="eyes">
	<g>
		
			<radialGradient id="SVGID_7_" cx="44.4434" cy="-10.3809" r="6.0225" gradientTransform="matrix(4.6414 4.250000e-02 -4.250000e-02 4.6415 -128.6281 86.9244)" gradientUnits="userSpaceOnUse">
			<stop  offset="0" style="stop-color:#FFFFFF"/>
			<stop  offset="3.486179e-02" style="stop-color:#F4F4F4"/>
			<stop  offset="0.3856" style="stop-color:#8D8D8D"/>
			<stop  offset="0.6677" style="stop-color:#414141"/>
			<stop  offset="0.8676" style="stop-color:#121212"/>
			<stop  offset="0.967" style="stop-color:#000000"/>
		</radialGradient>
		<path style="opacity:0.55;fill:url(#SVGID_7_);" d="M106,40.9c-0.1,15.4-12.8,27.8-28.2,27.7C62.4,68.4,50,55.8,50.1,40.4
			c0.1-15.4,12.8-27.8,28.2-27.7C93.8,12.8,106.2,25.4,106,40.9z"/>
		
			<radialGradient id="SVGID_8_" cx="44.4434" cy="-10.3809" r="4.7969" gradientTransform="matrix(4.6414 4.250000e-02 -4.250000e-02 4.6415 -128.6281 86.9244)" gradientUnits="userSpaceOnUse">
			<stop  offset="0" style="stop-color:#FFFFFF"/>
			<stop  offset="3.486179e-02" style="stop-color:#F4F4F4"/>
			<stop  offset="0.3856" style="stop-color:#8D8D8D"/>
			<stop  offset="0.6677" style="stop-color:#414141"/>
			<stop  offset="0.8676" style="stop-color:#121212"/>
			<stop  offset="0.967" style="stop-color:#000000"/>
		</radialGradient>
		<path style="opacity:0.55;fill:url(#SVGID_8_);" d="M100.4,40.8C100.2,53.1,90.2,63,77.9,62.9c-12.3-0.1-22.2-10.2-22.1-22.5
			C55.9,28.1,66,18.3,78.3,18.4C90.6,18.5,100.5,28.5,100.4,40.8z"/>
		
			<radialGradient id="SVGID_9_" cx="44.4434" cy="-10.3809" r="2.3455" gradientTransform="matrix(4.6414 4.250000e-02 -4.250000e-02 4.6415 -128.6281 86.9244)" gradientUnits="userSpaceOnUse">
			<stop  offset="0" style="stop-color:#FFFFFF"/>
			<stop  offset="3.486179e-02" style="stop-color:#F4F4F4"/>
			<stop  offset="0.3856" style="stop-color:#8D8D8D"/>
			<stop  offset="0.6677" style="stop-color:#414141"/>
			<stop  offset="0.8676" style="stop-color:#121212"/>
			<stop  offset="0.967" style="stop-color:#000000"/>
		</radialGradient>
		<path style="opacity:0.55;fill:url(#SVGID_9_);" d="M89,40.7c-0.1,6-5,10.8-11,10.8c-6-0.1-10.8-5-10.8-11c0.1-6,5-10.8,11-10.8
			C84.2,29.8,89,34.7,89,40.7z"/>
		
			<radialGradient id="SVGID_10_" cx="60.0234" cy="-10.5234" r="6.0225" gradientTransform="matrix(4.6414 4.250000e-02 -4.250000e-02 4.6415 -128.6281 86.9244)" gradientUnits="userSpaceOnUse">
			<stop  offset="0" style="stop-color:#FFFFFF"/>
			<stop  offset="3.486179e-02" style="stop-color:#F4F4F4"/>
			<stop  offset="0.3856" style="stop-color:#8D8D8D"/>
			<stop  offset="0.6677" style="stop-color:#414141"/>
			<stop  offset="0.8676" style="stop-color:#121212"/>
			<stop  offset="0.967" style="stop-color:#000000"/>
		</radialGradient>
		<path style="opacity:0.55;fill:url(#SVGID_10_);" d="M178.4,40.9c-0.1,15.4-12.8,27.8-28.2,27.7c-15.4-0.1-27.8-12.8-27.7-28.2
			c0.1-15.4,12.8-27.8,28.2-27.7C166.1,12.8,178.5,25.4,178.4,40.9z"/>
		
			<radialGradient id="SVGID_11_" cx="60.0234" cy="-10.5239" r="4.7971" gradientTransform="matrix(4.6414 4.250000e-02 -4.250000e-02 4.6415 -128.6281 86.9244)" gradientUnits="userSpaceOnUse">
			<stop  offset="0" style="stop-color:#FFFFFF"/>
			<stop  offset="3.486179e-02" style="stop-color:#F4F4F4"/>
			<stop  offset="0.3856" style="stop-color:#8D8D8D"/>
			<stop  offset="0.6677" style="stop-color:#414141"/>
			<stop  offset="0.8676" style="stop-color:#121212"/>
			<stop  offset="0.967" style="stop-color:#000000"/>
		</radialGradient>
		<path style="opacity:0.55;fill:url(#SVGID_11_);" d="M172.7,40.8c-0.1,12.3-10.2,22.2-22.5,22.1c-12.3-0.1-22.2-10.2-22.1-22.5
			c0.1-12.3,10.2-22.2,22.5-22.1C162.9,18.5,172.8,28.5,172.7,40.8z"/>
		
			<radialGradient id="SVGID_12_" cx="60.0234" cy="-10.5234" r="2.3457" gradientTransform="matrix(4.6414 4.250000e-02 -4.250000e-02 4.6415 -128.6281 86.9244)" gradientUnits="userSpaceOnUse">
			<stop  offset="0" style="stop-color:#FFFFFF"/>
			<stop  offset="3.486179e-02" style="stop-color:#F4F4F4"/>
			<stop  offset="0.3856" style="stop-color:#8D8D8D"/>
			<stop  offset="0.6677" style="stop-color:#414141"/>
			<stop  offset="0.8676" style="stop-color:#121212"/>
			<stop  offset="0.967" style="stop-color:#000000"/>
		</radialGradient>
		<path style="opacity:0.55;fill:url(#SVGID_12_);" d="M161.3,40.7c-0.1,6-5,10.8-11,10.8c-6-0.1-10.8-5-10.8-11
			c0.1-6,5-10.8,11-10.8C156.5,29.8,161.4,34.7,161.3,40.7z"/>
	</g>
</g>
</svg>
