<svg xmlns="http://www.w3.org/2000/svg" width="80" height="70" viewBox="0 0 80 70"><path fill="#FFF" d="M0 0h80v70H0z"/><radialGradient id="a" cx="118.342" cy="22.686" r="4.741" gradientTransform="matrix(4.6414 .0425 .0425 -4.6415 -489.444 143.632)" gradientUnits="userSpaceOnUse"><stop offset="0" stop-color="#FFF"/><stop offset=".156" stop-color="#F7DDDC"/><stop offset=".569" stop-color="#E18786"/><stop offset=".859" stop-color="#D4514F"/><stop offset="1" stop-color="#CF3C3A"/></radialGradient><path d="M34.2 49.4c7 6.3 16.3 10.1 26.4 10.2 10.2.1 19.5-3.6 26.6-9.8-2.8-13-13.5-22.7-26.3-22.8-12.8 0-23.7 9.5-26.7 22.4z" fill="url(#a)"/><radialGradient id="b" cx="118.336" cy="29.877" r="8.655" gradientTransform="matrix(4.6414 .0425 .0425 -4.6415 -489.444 143.632)" gradientUnits="userSpaceOnUse"><stop offset="0" stop-color="#FFF"/><stop offset=".156" stop-color="#F7DDDC"/><stop offset=".569" stop-color="#E18786"/><stop offset=".859" stop-color="#D4514F"/><stop offset="1" stop-color="#CF3C3A"/></radialGradient><path d="M101.2 10.4c-.2 22.2-18.4 40-40.5 39.8-22.2-.2-40-18.4-39.8-40.6.2-22.2 18.4-40 40.5-39.8 22.2.2 40 18.4 39.8 40.6z" fill="url(#b)"/><radialGradient id="c" cx="417.068" cy="-214.714" r="42.6" gradientTransform="matrix(1 0 0 -1 -356 -200)" gradientUnits="userSpaceOnUse"><stop offset="0" stop-color="#FFF"/><stop offset=".156" stop-color="#F7DDDC"/><stop offset=".569" stop-color="#E18786"/><stop offset=".859" stop-color="#D4514F"/><stop offset="1" stop-color="#CF3C3A"/></radialGradient><path d="M101.2 10.4c.2-22.2-17.6-40.4-39.8-40.5-22.2-.3-40.3 17.5-40.5 39.7-.1 13.3 6.2 25.1 16 32.5-1.2 2.3-2.1 4.7-2.7 7.3 7 6.3 16.3 10.1 26.4 10.2 10.2.1 19.5-3.6 26.6-9.8-.6-2.6-1.4-5.1-2.6-7.3 10-7.2 16.5-18.9 16.6-32.1z" fill="url(#c)"/><path d="M42.4 46.5c-1.3 4.3-.5 7.8.2 10.9.5 2 .9 3.7.7 5.5v.4c.1 1.8-.4 3.6-1.3 5.6-.8 1.8-.1 3.8 1.7 4.6 1.8.8 3.8.1 4.6-1.7.9-1.9 2-4.9 1.9-8.6v.4c.2-2.9-.4-5.4-.9-7.6-.6-2.7-1.1-4.9-.4-7.3.6-1.8-.5-3.8-2.3-4.3-1.7-.7-3.6.3-4.2 2.1zM51.9 52.2c-1 4.4.1 7.8 1 10.9.6 2 1.1 3.7 1.1 5.5v.4c.3 3.2-.7 5.3-1.5 6.9-.2.5-.4.8-.6 1.2-.7 1.8.2 3.8 2 4.4 1.8.7 3.8-.3 4.4-2 .1-.1.2-.4.3-.7.9-1.9 2.6-5.5 2.1-10.6v.4c0-2.9-.8-5.4-1.4-7.6-.8-2.6-1.4-4.8-.9-7.3.4-1.9-.7-3.7-2.6-4.2-1.6-.3-3.5.9-3.9 2.7zM70.9 48c-.6 5 1.1 8.7 2.7 12 .9 2.1 1.9 4 2.1 6.1v.2l.1.2c.8 3.7-.1 6.4-.8 8.2-.2.5-.4 1-.5 1.4-.5 1.9.7 3.7 2.5 4.2 1.9.5 3.7-.7 4.2-2.5.1-.2.2-.5.3-.9.8-2.2 2.2-6.4 1-12l.1.4c-.4-3.2-1.6-5.8-2.7-8.2-1.3-2.8-2.4-5.2-2.1-8.3.2-1.9-1.1-3.6-3-3.8-2-.2-3.7 1.2-3.9 3zM60.7 44.9c-2.1 5.9.3 12 2.4 17.2 1.4 3.7 2.8 7.1 2.8 10.2 0 5.2-1.2 8.2-2 9.9-.3.7-.5 1.2-.7 1.8-.5 1.9.7 3.7 2.5 4.2 1.9.5 3.7-.7 4.2-2.5v.1c.1-.1.2-.5.3-.8.9-2.1 2.5-6 2.5-12.6 0-4.5-1.7-8.7-3.3-12.8-1.8-4.6-3.5-8.9-2.3-12.4.6-1.8-.3-3.8-2.1-4.4-1.7-.7-3.7.3-4.3 2.1z" fill="#E86CA1"/><path d="M90.3 37.6l.5-.5c.3-.3.6-.7.9-1 .2-.2.3-.3.4-.5.3-.4.6-.8.9-1.1.1-.2.2-.3.3-.4.3-.3.5-.7.7-1 .1-.1.2-.3.3-.4.3-.4.6-.8.8-1.2.1-.2.2-.3.3-.5.3-.4.5-.9.8-1.3.1-.2.2-.3.2-.4.2-.4.5-.8.7-1.3.1-.1.1-.2.1-.3.3-.5.5-1 .7-1.5.1-.2.1-.3.2-.4l.6-1.5c.1-.1.1-.2.1-.4.2-.5.4-1 .5-1.5 0-.1.1-.1.1-.2.2-.6.4-1.1.5-1.7.1-.1.1-.2.1-.4.2-.6.3-1.1.4-1.7 0-.1.1-.2.1-.3.1-.6.3-1.1.3-1.8v-.1l.3-1.8c0-.1.1-.2.1-.3.1-.6.1-1.2.2-1.8V12c.1-.6.1-1.2.1-1.9.2-22.2-17.6-40.4-39.8-40.5-22.6.1-40.8 17.9-41 40.1 0 .6 0 1.2.1 1.9v.4c.1.6.1 1.2.1 1.8 0 .1 0 .2.1.4.1.6.1 1.2.2 1.8v.1c.1.6.2 1.1.3 1.7 0 .1.1.2.1.4.1.6.3 1.1.4 1.7.1.1.1.3.1.4.2.6.3 1.1.5 1.7 0 .1.1.1.1.2.2.5.3 1 .5 1.5.1.1.1.3.2.4l.6 1.5c.1.2.1.3.2.4.2.5.4 1 .7 1.5.1.1.1.2.2.3l.6 1.2c.1.2.2.3.2.4.3.5.5.9.7 1.3.1.2.2.3.3.5.3.4.5.8.8 1.2.1.2.2.3.3.5.2.3.5.7.7 1 .1.2.2.3.4.5.3.4.6.8.9 1.1.2.2.3.4.4.5.3.3.6.7.8 1 .2.2.3.4.5.6.3.3.5.5.7.8l.5.5c.3.3.7.6 1 .9.2.2.4.3.5.5.3.3.6.5.9.8.2.2.5.4.7.6.3.2.5.4.7.6.2.2.4.3.6.4-1.2 2.3-2.1 4.7-2.7 7.3 7 6.3 16.3 10.1 26.4 10.2 9.7-.5 19-4.2 26.1-10.4-.6-2.6-1.4-5.1-2.6-7.3.2-.1.4-.3.5-.4.3-.2.6-.4.8-.6.2-.2.4-.3.6-.5.3-.3.7-.6 1-.8.2-.2.4-.3.5-.5.4-.3.7-.6 1-1l.5-.5c.4-.1.6-.3.9-.6z" fill="#FFF"/><defs><filter id="d" filterUnits="userSpaceOnUse" x="15.1" y="-33.4" width="89.5" height="94.6"><feColorMatrix values="1 0 0 0 0 0 1 0 0 0 0 0 1 0 0 0 0 0 1 0"/></filter></defs><mask maskUnits="userSpaceOnUse" x="15.1" y="-33.4" width="89.5" height="94.6" id="f"><g filter="url(#d)"><radialGradient id="e" cx="118.314" cy="28.848" r="9.178" gradientTransform="matrix(4.6414 .0425 .0425 -4.6415 -489.444 143.632)" gradientUnits="userSpaceOnUse"><stop offset="0" stop-color="#FFF"/><stop offset=".553" stop-color="#FDFDFD"/><stop offset=".752" stop-color="#F6F6F6"/><stop offset=".894" stop-color="#EBEBEB"/><stop offset="1" stop-color="#DBDBDB"/></radialGradient><path d="M101.1 10.4c.2-22.2-17.6-40.3-39.8-40.5C39.1-30.3 21-12.5 20.8 9.7c-.1 13.3 6.2 25.1 16 32.5-1.2 2.3-2.1 4.7-2.7 7.3 7 6.3 16.3 10.1 26.4 10.2 10.2.1 19.5-3.7 26.6-9.8-.6-2.6-1.4-5.1-2.6-7.3 10-7.3 16.5-18.9 16.6-32.2z" fill="url(#e)"/></g></mask><linearGradient id="g" gradientUnits="userSpaceOnUse" x1="418.361" y1="-162.936" x2="418.361" y2="-256.764" gradientTransform="matrix(1 .0092 .0092 -1 -356.585 -199.81)"><stop offset="0" stop-color="#FFF"/><stop offset=".341" stop-color="#A4A4A4"/><stop offset=".967"/></linearGradient><path mask="url(#f)" fill="url(#g)" d="M103.7 61.2l-44.3-.4-44.3-.4.4-46.9.4-46.9 44.4.4 44.3.4-.4 46.9"/><path d="M60.1 41c0 2.7-1.2 4.9-2.7 4.9-1.4 0-2.6-2.2-2.6-4.9s1.2-4.9 2.7-4.9c1.5 0 2.6 2.2 2.6 4.9zM66.7 41.1c0 2.7-1.2 4.9-2.7 4.9-1.4 0-2.6-2.2-2.6-4.9.1-2.7 1.2-4.9 2.7-4.9 1.5 0 2.6 2.1 2.6 4.9z" opacity=".55" enable-background="new"/><path d="M55.6 50c-2.5 0-4.5 2.7-4.5 6.1 0 .7.1 1.3.2 2 2.6.9 5.2 1.4 7.9 1.5.5-1 .8-2.2.8-3.5 0-3.4-1.9-6.1-4.4-6.1zM45.7 47.4c-2.4 0-4.8 3.6-4.9 6.8 2.6 1.6 5.2 2.6 7.9 3.5.9-1.1 1.4-2.7 1.4-4.3.1-3.2-1.9-6-4.4-6zM75.7 47.5c-2.5 0-4.5 2.7-4.5 6.1 0 1.7.5 3.2 1.3 4.4 3.1-1 5.4-2 8-3.3-.1-3.4-2.3-7.2-4.8-7.2z" opacity=".61"/><g opacity=".61"><path d="M65.7 50c-2.5 0-4.5 2.7-4.5 6.2 0 1.2.3 2.5.7 3.5 2.7-.1 5.3-.6 7.9-1.4.2-.6.3-1.3.3-2 .1-3.5-2-6.3-4.4-6.3z"/></g><g><radialGradient id="h" cx="114.311" cy="27.865" r="3.113" gradientTransform="matrix(4.6414 .0425 .0425 -4.6415 -489.444 143.632)" gradientUnits="userSpaceOnUse"><stop offset="0" stop-color="#FFF"/><stop offset=".035" stop-color="#F4F4F4"/><stop offset=".386" stop-color="#8D8D8D"/><stop offset=".668" stop-color="#414141"/><stop offset=".868" stop-color="#121212"/><stop offset=".967"/></radialGradient><path d="M53.8 19.2c-.1 6.4-5.3 11.5-11.6 11.4-6.4-.1-11.5-5.3-11.4-11.6 0-.3 0-.7.1-1H28c0 .3-.1.7-.1 1-.1 8 6.4 14.5 14.3 14.6 8 .1 14.5-6.4 14.6-14.3V18h-2.9c-.1.4-.1.8-.1 1.2z" opacity=".55" fill="url(#h)" enable-background="new"/><radialGradient id="i" cx="114.311" cy="27.865" r="3.113" gradientTransform="matrix(4.6414 .0425 .0425 -4.6415 -489.444 143.632)" gradientUnits="userSpaceOnUse"><stop offset="0" stop-color="#FFF"/><stop offset=".035" stop-color="#F4F4F4"/><stop offset=".386" stop-color="#8D8D8D"/><stop offset=".668" stop-color="#414141"/><stop offset=".868" stop-color="#121212"/><stop offset=".967"/></radialGradient><path d="M42.2 30.6c6.4.1 11.5-5.1 11.6-11.4 0-.4 0-.8-.1-1.2h-6c.1.4.1.8.1 1.2-.1 3.1-2.6 5.6-5.7 5.6-3.1-.1-5.6-2.6-5.6-5.7 0-.4 0-.7.1-1.1h-5.9c0 .3-.1.7-.1 1 .2 6.4 5.3 11.6 11.6 11.6z" opacity=".55" fill="url(#i)" enable-background="new"/><radialGradient id="j" cx="114.316" cy="27.866" r="2.478" gradientTransform="matrix(4.6414 .0425 .0425 -4.6415 -489.444 143.632)" gradientUnits="userSpaceOnUse"><stop offset="0" stop-color="#FFF"/><stop offset=".035" stop-color="#F4F4F4"/><stop offset=".386" stop-color="#8D8D8D"/><stop offset=".668" stop-color="#414141"/><stop offset=".868" stop-color="#121212"/><stop offset=".967"/></radialGradient><path d="M42.2 30.6c6.4.1 11.5-5.1 11.6-11.4 0-.4 0-.8-.1-1.2h-6c.1.4.1.8.1 1.2-.1 3.1-2.6 5.6-5.7 5.6-3.1-.1-5.6-2.6-5.6-5.7 0-.4 0-.7.1-1.1h-5.9c0 .3-.1.7-.1 1 .2 6.4 5.3 11.6 11.6 11.6z" opacity=".55" fill="url(#j)" enable-background="new"/><radialGradient id="k" cx="114.311" cy="27.865" r="3.113" gradientTransform="matrix(4.6414 .0425 .0425 -4.6415 -489.444 143.632)" gradientUnits="userSpaceOnUse"><stop offset="0" stop-color="#FFF"/><stop offset=".035" stop-color="#F4F4F4"/><stop offset=".386" stop-color="#8D8D8D"/><stop offset=".668" stop-color="#414141"/><stop offset=".868" stop-color="#121212"/><stop offset=".967"/></radialGradient><path d="M42.3 24.8c3.1 0 5.6-2.5 5.7-5.6 0-.4 0-.8-.1-1.2h-11c-.1.3-.1.7-.1 1.1-.1 3.1 2.4 5.6 5.5 5.7z" opacity=".55" fill="url(#k)" enable-background="new"/><radialGradient id="l" cx="114.316" cy="27.866" r="2.478" gradientTransform="matrix(4.6414 .0425 .0425 -4.6415 -489.444 143.632)" gradientUnits="userSpaceOnUse"><stop offset="0" stop-color="#FFF"/><stop offset=".035" stop-color="#F4F4F4"/><stop offset=".386" stop-color="#8D8D8D"/><stop offset=".668" stop-color="#414141"/><stop offset=".868" stop-color="#121212"/><stop offset=".967"/></radialGradient><path d="M42.3 24.8c3.1 0 5.6-2.5 5.7-5.6 0-.4 0-.8-.1-1.2h-11c-.1.3-.1.7-.1 1.1-.1 3.1 2.4 5.6 5.5 5.7z" opacity=".55" fill="url(#l)" enable-background="new"/><radialGradient id="m" cx="114.316" cy="27.867" r="1.211" gradientTransform="matrix(4.6414 .0425 .0425 -4.6415 -489.444 143.632)" gradientUnits="userSpaceOnUse"><stop offset="0" stop-color="#FFF"/><stop offset=".035" stop-color="#F4F4F4"/><stop offset=".386" stop-color="#8D8D8D"/><stop offset=".668" stop-color="#414141"/><stop offset=".868" stop-color="#121212"/><stop offset=".967"/></radialGradient><path d="M42.3 24.8c3.1 0 5.6-2.5 5.7-5.6 0-.4 0-.8-.1-1.2h-11c-.1.3-.1.7-.1 1.1-.1 3.1 2.4 5.6 5.5 5.7z" opacity=".55" fill="url(#m)" enable-background="new"/><radialGradient id="n" cx="122.364" cy="27.939" r="3.109" gradientTransform="matrix(4.6414 .0425 .0425 -4.6415 -489.444 143.632)" gradientUnits="userSpaceOnUse"><stop offset="0" stop-color="#FFF"/><stop offset=".035" stop-color="#F4F4F4"/><stop offset=".386" stop-color="#8D8D8D"/><stop offset=".668" stop-color="#414141"/><stop offset=".868" stop-color="#121212"/><stop offset=".967"/></radialGradient><path d="M91.2 19.2c-.1 6.4-5.3 11.5-11.6 11.4-6.4-.1-11.5-5.3-11.4-11.6 0-.3 0-.7.1-1h-2.9c0 .3-.1.7-.1 1-.1 8 6.4 14.5 14.3 14.6 8 .1 14.5-6.4 14.6-14.3 0-.4 0-.9-.1-1.3h-2.9v1.2z" opacity=".55" fill="url(#n)" enable-background="new"/><radialGradient id="o" cx="122.359" cy="27.939" r="3.115" gradientTransform="matrix(4.6414 .0425 .0425 -4.6415 -489.444 143.632)" gradientUnits="userSpaceOnUse"><stop offset="0" stop-color="#FFF"/><stop offset=".035" stop-color="#F4F4F4"/><stop offset=".386" stop-color="#8D8D8D"/><stop offset=".668" stop-color="#414141"/><stop offset=".868" stop-color="#121212"/><stop offset=".967"/></radialGradient><path d="M79.6 30.6c6.4.1 11.6-5.1 11.6-11.4 0-.4 0-.8-.1-1.2h-5.9c.1.4.1.8.1 1.2-.1 3.1-2.6 5.6-5.7 5.6-3.1-.1-5.6-2.6-5.6-5.7 0-.4 0-.7.1-1.1h-5.9c0 .3-.1.7-.1 1 0 6.4 5.1 11.6 11.5 11.6z" opacity=".55" fill="url(#o)" enable-background="new"/><radialGradient id="p" cx="122.359" cy="27.945" r="2.475" gradientTransform="matrix(4.6414 .0425 .0425 -4.6415 -489.444 143.632)" gradientUnits="userSpaceOnUse"><stop offset="0" stop-color="#FFF"/><stop offset=".035" stop-color="#F4F4F4"/><stop offset=".386" stop-color="#8D8D8D"/><stop offset=".668" stop-color="#414141"/><stop offset=".868" stop-color="#121212"/><stop offset=".967"/></radialGradient><path d="M79.6 30.6c6.4.1 11.6-5.1 11.6-11.4 0-.4 0-.8-.1-1.2h-5.9c.1.4.1.8.1 1.2-.1 3.1-2.6 5.6-5.7 5.6-3.1-.1-5.6-2.6-5.6-5.7 0-.4 0-.7.1-1.1h-5.9c0 .3-.1.7-.1 1 0 6.4 5.1 11.6 11.5 11.6z" opacity=".55" fill="url(#p)" enable-background="new"/><radialGradient id="q" cx="122.364" cy="27.939" r="3.109" gradientTransform="matrix(4.6414 .0425 .0425 -4.6415 -489.444 143.632)" gradientUnits="userSpaceOnUse"><stop offset="0" stop-color="#FFF"/><stop offset=".035" stop-color="#F4F4F4"/><stop offset=".386" stop-color="#8D8D8D"/><stop offset=".668" stop-color="#414141"/><stop offset=".868" stop-color="#121212"/><stop offset=".967"/></radialGradient><path d="M79.6 24.8c3.1 0 5.6-2.5 5.7-5.6 0-.4 0-.8-.1-1.2h-11c-.1.3-.1.7-.1 1.1-.1 3.1 2.4 5.6 5.5 5.7z" opacity=".55" fill="url(#q)" enable-background="new"/><radialGradient id="r" cx="122.359" cy="27.945" r="2.475" gradientTransform="matrix(4.6414 .0425 .0425 -4.6415 -489.444 143.632)" gradientUnits="userSpaceOnUse"><stop offset="0" stop-color="#FFF"/><stop offset=".035" stop-color="#F4F4F4"/><stop offset=".386" stop-color="#8D8D8D"/><stop offset=".668" stop-color="#414141"/><stop offset=".868" stop-color="#121212"/><stop offset=".967"/></radialGradient><path d="M79.6 24.8c3.1 0 5.6-2.5 5.7-5.6 0-.4 0-.8-.1-1.2h-11c-.1.3-.1.7-.1 1.1-.1 3.1 2.4 5.6 5.5 5.7z" opacity=".55" fill="url(#r)" enable-background="new"/><radialGradient id="s" cx="122.359" cy="27.941" r="1.211" gradientTransform="matrix(4.6414 .0425 .0425 -4.6415 -489.444 143.632)" gradientUnits="userSpaceOnUse"><stop offset="0" stop-color="#FFF"/><stop offset=".035" stop-color="#F4F4F4"/><stop offset=".386" stop-color="#8D8D8D"/><stop offset=".668" stop-color="#414141"/><stop offset=".868" stop-color="#121212"/><stop offset=".967"/></radialGradient><path d="M79.6 24.8c3.1 0 5.6-2.5 5.7-5.6 0-.4 0-.8-.1-1.2h-11c-.1.3-.1.7-.1 1.1-.1 3.1 2.4 5.6 5.5 5.7z" opacity=".55" fill="url(#s)" enable-background="new"/></g></svg>